<?xml version="1.0" standalone="no"?>
<!DOCTYPE svg PUBLIC "-//W3C//DTD SVG 20010904//EN"
 "http://www.w3.org/TR/2001/REC-SVG-20010904/DTD/svg10.dtd">
<svg version="1.0" xmlns="http://www.w3.org/2000/svg"
 width="512.000000pt" height="512.000000pt" viewBox="0 0 512.000000 512.000000"
 preserveAspectRatio="xMidYMid meet">

<g transform="translate(0.000000,512.000000) scale(0.100000,-0.100000)"
fill="#000000" stroke="none">
<path d="M1295 4931 c-56 -14 -131 -59 -172 -104 -47 -51 -66 -84 -82 -143 -8
-28 -11 -599 -12 -1940 l0 -1900 21 -56 c36 -97 102 -165 198 -204 l57 -23 3
-168 c4 -233 -24 -213 304 -213 161 0 267 4 279 10 11 6 59 91 109 190 l90
180 470 0 470 0 90 -180 c50 -99 98 -184 109 -190 12 -6 118 -10 279 -10 328
0 300 -20 304 213 l3 168 57 23 c96 39 162 107 198 204 l21 56 0 1900 c-1
1315 -5 1912 -12 1940 -24 92 -94 174 -189 223 l-55 28 -1255 2 c-690 0 -1268
-2 -1285 -6z m2523 -156 c47 -20 79 -50 103 -97 18 -36 19 -74 19 -1018 l0
-980 -115 0 c-110 0 -117 -1 -140 -25 -28 -27 -30 -42 -14 -78 17 -38 50 -47
164 -47 l105 0 0 -125 0 -125 -115 0 c-110 0 -117 -1 -140 -25 -28 -27 -30
-42 -14 -78 17 -38 50 -47 164 -47 l105 0 0 -125 0 -125 -115 0 c-110 0 -117
-1 -140 -25 -28 -27 -30 -42 -14 -78 17 -38 50 -47 164 -47 l105 0 0 -125 0
-125 -115 0 c-110 0 -117 -1 -140 -25 -28 -27 -30 -42 -14 -78 17 -38 50 -47
164 -47 l105 0 0 -125 0 -125 -115 0 c-110 0 -117 -1 -140 -25 -28 -27 -30
-42 -14 -78 17 -38 50 -47 164 -47 l105 0 0 -35 c0 -52 -21 -95 -68 -137 -52
-47 -79 -52 -277 -53 l-160 0 -5 635 c-7 718 -2 677 -90 855 -111 225 -306
386 -555 457 -116 33 -334 33 -450 0 -249 -71 -444 -232 -555 -457 -88 -178
-83 -137 -90 -855 l-5 -635 -115 -3 c-155 -4 -262 10 -304 39 -49 33 -78 82
-84 139 l-5 50 106 0 c58 0 117 5 131 11 51 23 55 103 7 128 -11 6 -69 11
-130 11 l-111 0 0 125 0 125 105 0 c114 0 147 9 164 47 16 36 14 51 -14 78
-23 24 -30 25 -140 25 l-115 0 0 125 0 125 105 0 c114 0 147 9 164 47 16 36
14 51 -14 78 -23 24 -30 25 -140 25 l-115 0 0 125 0 125 105 0 c114 0 147 9
164 47 16 36 14 51 -14 78 -23 24 -30 25 -140 25 l-115 0 0 125 0 125 105 0
c114 0 147 9 164 47 16 36 14 51 -14 78 -23 24 -30 25 -140 25 l-115 0 0 980
c0 944 1 982 19 1018 24 46 56 76 101 96 31 13 188 15 1258 16 1081 0 1227 -2
1260 -15z m-1033 -2279 c241 -82 419 -275 482 -523 16 -61 18 -131 18 -668 l0
-600 -725 0 -725 0 0 600 c0 666 0 661 69 808 94 203 280 352 501 403 99 23
282 13 380 -20z m-865 -1942 c0 -2 -25 -54 -55 -114 l-55 -110 -175 0 -175 0
0 115 0 115 230 -1 c127 0 230 -3 230 -5z m1740 -109 l0 -115 -175 0 -175 0
-55 110 c-30 60 -55 112 -55 114 0 2 104 5 230 5 l230 1 0 -115z"/>
<path d="M1707 4542 c-16 -17 -17 -87 -17 -805 0 -774 0 -787 20 -807 20 -20
33 -20 850 -20 817 0 830 0 850 20 20 20 20 33 20 808 0 752 -1 790 -18 805
-17 16 -91 17 -854 17 -796 0 -836 -1 -851 -18z m1581 -804 l2 -678 -730 0
-730 0 0 673 c0 371 3 677 7 680 3 4 331 6 727 5 l721 -3 3 -677z"/>
<path d="M2672 4183 c-19 -8 -311 -349 -321 -375 -18 -50 4 -75 121 -134 l109
-55 -23 -28 c-13 -16 -56 -67 -95 -114 -60 -70 -73 -91 -73 -119 0 -54 48 -83
103 -62 21 8 260 289 274 323 20 47 -1 70 -112 128 -55 29 -104 54 -110 56 -5
2 43 65 108 141 64 75 118 144 118 154 4 61 -47 106 -99 85z"/>
<path d="M2407 2280 c-213 -68 -365 -297 -343 -516 36 -355 418 -562 730 -396
73 39 177 145 210 215 15 32 35 92 44 134 51 238 -107 497 -347 567 -75 22
-219 20 -294 -4z m298 -160 c265 -122 270 -493 8 -626 -52 -26 -68 -29 -153
-29 -85 0 -101 3 -150 29 -152 79 -230 246 -186 402 61 213 283 316 481 224z"/>
<path d="M2510 1860 c-30 -30 -27 -83 6 -109 15 -12 34 -21 44 -21 10 0 29 9
44 21 52 41 23 129 -44 129 -17 0 -39 -9 -50 -20z"/>
<path d="M2083 1054 c-20 -20 -24 -31 -19 -57 13 -64 -7 -62 479 -65 471 -3
490 -1 508 45 14 37 11 52 -16 78 l-24 25 -451 0 -451 0 -26 -26z"/>
</g>
</svg>
