<?xml version="1.0" standalone="no"?>
<!DOCTYPE svg PUBLIC "-//W3C//DTD SVG 20010904//EN"
 "http://www.w3.org/TR/2001/REC-SVG-20010904/DTD/svg10.dtd">
<svg version="1.0" xmlns="http://www.w3.org/2000/svg"
 width="512.000000pt" height="512.000000pt" viewBox="0 0 512.000000 512.000000"
 preserveAspectRatio="xMidYMid meet">

<g transform="translate(0.000000,512.000000) scale(0.100000,-0.100000)"
fill="#000000" stroke="none">
<path d="M1144 4896 c-11 -8 -35 -55 -54 -105 -32 -85 -37 -92 -70 -102 -19
-6 -76 -29 -126 -51 l-91 -39 -81 36 c-44 19 -93 35 -109 35 -40 0 -303 -262
-303 -302 0 -15 16 -63 35 -107 19 -43 35 -83 35 -87 0 -4 -12 -32 -27 -63
-14 -31 -37 -85 -49 -121 l-23 -64 -88 -33 c-48 -19 -96 -43 -106 -54 -15 -19
-17 -45 -17 -209 0 -224 -3 -218 125 -270 l88 -35 19 -54 c10 -30 32 -85 49
-123 l32 -68 -37 -83 c-56 -126 -58 -119 102 -279 98 -98 144 -138 161 -138
13 0 62 17 110 38 83 37 88 38 118 24 l32 -15 3 -606 3 -606 31 -65 c34 -71
94 -137 158 -175 90 -53 119 -55 673 -55 l513 0 0 -165 0 -165 -223 0 c-253 0
-297 -8 -384 -67 -105 -70 -137 -157 -131 -348 3 -104 5 -116 27 -139 l24 -26
1397 0 1397 0 24 26 c23 25 24 31 24 167 0 156 -8 193 -55 253 -45 55 -98 92
-169 114 -55 18 -91 20 -287 20 l-224 0 0 165 0 164 538 3 537 3 60 24 c83 33
183 133 216 216 l24 60 0 1145 c0 1282 5 1192 -73 1295 -47 62 -106 107 -179
137 l-58 23 -1172 5 -1173 5 -33 70 -33 69 38 86 c21 47 38 96 38 109 0 18
-36 61 -137 163 -159 160 -153 158 -279 102 l-82 -36 -63 30 c-35 17 -91 39
-124 50 l-60 21 -37 91 c-20 50 -44 98 -55 105 -27 21 -390 21 -419 1z m349
-226 c15 -41 35 -83 44 -92 9 -10 52 -29 97 -43 44 -13 116 -43 159 -65 44
-22 90 -40 103 -40 14 0 54 14 91 30 36 17 71 30 77 30 6 0 44 -33 84 -73 l73
-74 -36 -88 -37 -88 50 -106 c28 -58 59 -133 68 -166 10 -33 26 -69 35 -79 10
-11 53 -34 96 -51 l78 -31 0 -108 0 -108 -80 -30 c-43 -16 -85 -34 -92 -40 -7
-6 -22 -42 -34 -82 -11 -39 -43 -116 -70 -172 -27 -55 -49 -104 -49 -108 0 -4
17 -45 37 -92 l37 -85 -76 -76 -77 -76 -80 36 c-44 20 -87 37 -95 37 -8 0 -50
-18 -93 -40 -43 -23 -121 -55 -173 -73 l-95 -32 -32 -74 c-17 -41 -34 -83 -36
-93 -5 -17 -15 -18 -113 -16 l-107 3 -36 90 -36 90 -105 35 c-58 20 -135 52
-172 73 -36 20 -73 37 -82 37 -8 0 -52 -16 -97 -36 l-82 -36 -73 73 c-41 41
-74 77 -74 82 0 5 13 39 30 77 16 38 30 81 30 96 0 16 -17 62 -39 104 -21 41
-50 111 -65 155 -14 44 -30 86 -35 93 -4 8 -46 29 -92 47 l-84 34 -3 108 -3
108 75 29 c41 15 84 34 95 42 12 9 30 47 46 100 14 46 44 118 65 160 22 41 40
88 40 104 0 15 -14 58 -30 95 -17 37 -30 72 -30 79 0 6 33 44 73 83 l72 71 75
-34 c41 -18 87 -34 101 -34 14 0 60 18 102 40 42 21 114 51 160 65 47 14 91
33 99 43 9 9 28 52 44 95 l29 78 109 -3 110 -3 29 -75z m3257 -824 c19 -10 52
-34 72 -54 72 -69 69 -1 66 -1238 l-3 -1111 -30 -49 c-19 -30 -49 -60 -79 -79
l-49 -30 -1745 -3 c-1149 -1 -1757 1 -1781 8 -62 16 -120 65 -147 123 l-24 52
0 548 c0 425 3 548 12 545 7 -3 29 -47 50 -99 l38 -94 0 -336 c0 -317 1 -338
19 -360 l19 -24 1769 -3 c972 -1 1778 0 1791 3 12 3 31 14 42 25 20 20 20 38
20 1013 0 977 0 992 -20 1025 -40 65 14 62 -1108 62 l-1019 0 -6 29 c-3 16
-13 36 -22 44 -8 9 -15 18 -15 22 0 3 476 4 1058 3 1008 -3 1059 -4 1092 -22z
m-120 -1141 l0 -905 -1670 0 -1670 0 0 269 0 269 129 4 c106 2 132 6 149 21
10 10 34 57 52 106 l33 88 68 22 c37 12 93 34 124 50 l56 29 90 -40 c66 -29
98 -38 117 -33 16 4 80 60 160 139 101 102 132 139 132 159 0 14 -16 62 -35
106 -19 43 -35 83 -35 88 0 5 17 50 39 99 21 49 41 103 45 120 6 29 15 34 97
65 50 18 98 42 107 52 13 14 18 42 20 108 l4 89 994 0 994 0 0 -905z m-1120
-1750 l0 -165 -550 0 -550 0 0 165 0 165 550 0 550 0 0 -165z m625 -336 c21
-6 54 -26 72 -44 32 -32 33 -35 33 -119 l0 -86 -1285 0 -1285 0 0 65 c0 71 16
120 48 148 52 47 28 46 1237 47 798 0 1152 -3 1180 -11z"/>
<path d="M1272 4269 c-240 -31 -443 -195 -530 -427 -33 -89 -42 -263 -18 -366
41 -176 176 -345 336 -425 204 -100 437 -93 627 21 77 45 180 150 226 228 64
110 82 185 81 335 0 117 -3 137 -29 205 -109 292 -394 469 -693 429z m219
-175 c250 -73 399 -336 334 -589 -44 -167 -179 -304 -344 -347 -230 -60 -457
45 -564 260 l-42 85 0 121 c0 103 4 130 24 179 52 130 174 245 304 286 78 25
212 27 288 5z"/>
<path d="M3555 3483 c-121 -65 -604 -349 -622 -366 l-23 -20 0 -392 0 -392 23
-21 c12 -11 163 -102 334 -201 218 -126 322 -181 343 -181 21 0 125 54 338
177 169 97 319 188 335 202 l27 25 0 391 0 392 -22 21 c-42 38 -651 382 -678
382 -14 -1 -38 -8 -55 -17z m273 -279 c119 -69 220 -129 225 -133 4 -4 -94
-60 -218 -125 l-225 -118 -225 118 c-124 65 -221 122 -217 126 6 6 433 256
440 257 1 1 100 -56 220 -125z m-445 -438 l147 -77 0 -280 c0 -153 -2 -279 -4
-279 -2 0 -105 58 -228 129 l-223 129 -3 272 -2 272 82 -45 c46 -24 149 -79
231 -121z m760 -377 c-11 -10 -442 -259 -448 -259 -3 0 -4 126 -3 281 l3 280
225 118 225 119 3 -266 c1 -146 -1 -269 -5 -273z"/>
</g>
</svg>
